<svg width="109" height="48" viewBox="0 0 109 48" fill="none" xmlns="http://www.w3.org/2000/svg">
    <path d="M26.8169 26.7046H28.3193C28.3913 27.3521 28.7067 27.8722 29.2656 28.2651C29.8301 28.658 30.5412 28.8545 31.3989 28.8545C32.2069 28.8545 32.8737 28.6636 33.3994 28.2817C33.9307 27.8944 34.1963 27.4074 34.1963 26.8208C34.1963 26.3172 34.0109 25.9022 33.6401 25.5757C33.2749 25.2492 32.6883 24.9808 31.8804 24.7705L30.3447 24.3721C29.238 24.0898 28.43 23.6969 27.9209 23.1934C27.4118 22.6842 27.1572 22.0229 27.1572 21.2095C27.1572 20.2134 27.5501 19.3999 28.3359 18.769C29.1273 18.1382 30.1455 17.8228 31.3906 17.8228C32.5804 17.8228 33.5654 18.1437 34.3457 18.7856C35.126 19.422 35.5327 20.241 35.5659 21.2427H34.0718C34.0054 20.6007 33.7287 20.0944 33.2417 19.7236C32.7547 19.3529 32.1211 19.1675 31.3408 19.1675C30.5661 19.1675 29.9325 19.3501 29.4399 19.7153C28.953 20.0806 28.7095 20.5565 28.7095 21.1431C28.7095 21.5968 28.8866 21.9704 29.2407 22.2637C29.6004 22.5514 30.187 22.8005 31.0005 23.0107L32.2539 23.3428C33.4935 23.6527 34.3844 24.0649 34.9268 24.5796C35.4691 25.0942 35.7402 25.7804 35.7402 26.6382C35.7402 27.7339 35.3363 28.6027 34.5283 29.2446C33.7259 29.881 32.6357 30.1992 31.2578 30.1992C29.985 30.1992 28.9447 29.881 28.1367 29.2446C27.3288 28.6082 26.8888 27.7616 26.8169 26.7046ZM37.334 30V21.3672H38.7783V30H37.334ZM38.0562 19.9146C37.8127 19.9146 37.6024 19.826 37.4253 19.6489C37.2482 19.4718 37.1597 19.2616 37.1597 19.0181C37.1597 18.769 37.2482 18.5588 37.4253 18.3872C37.6024 18.2101 37.8127 18.1216 38.0562 18.1216C38.3052 18.1216 38.5182 18.2101 38.6953 18.3872C38.8724 18.5588 38.9609 18.769 38.9609 19.0181C38.9609 19.2616 38.8724 19.4718 38.6953 19.6489C38.5182 19.826 38.3052 19.9146 38.0562 19.9146ZM44.2402 28.7964C44.9928 28.7964 45.5988 28.5086 46.0581 27.9331C46.5174 27.3576 46.7471 26.5967 46.7471 25.6504C46.7471 24.6986 46.5174 23.9349 46.0581 23.3594C45.5988 22.7783 44.9928 22.4878 44.2402 22.4878C43.4932 22.4878 42.8955 22.7756 42.4473 23.3511C42.0046 23.9211 41.7832 24.6875 41.7832 25.6504C41.7832 26.6133 42.0046 27.3797 42.4473 27.9497C42.8955 28.5142 43.4932 28.7964 44.2402 28.7964ZM44.29 33.2539C43.3438 33.2539 42.5303 33.0132 41.8496 32.5317C41.1689 32.0558 40.7677 31.4499 40.646 30.7139H42.1318C42.2757 31.1123 42.5469 31.4305 42.9453 31.6685C43.3438 31.9064 43.8114 32.0254 44.3481 32.0254C45.0897 32.0254 45.6735 31.8289 46.0996 31.436C46.5312 31.0431 46.7471 30.5229 46.7471 29.8755V28.5142H46.7139C46.4427 28.9901 46.0636 29.3691 45.5767 29.6514C45.0897 29.9281 44.5474 30.0664 43.9497 30.0664C42.8485 30.0664 41.9658 29.6652 41.3018 28.8628C40.6377 28.0604 40.3057 26.9896 40.3057 25.6504C40.3057 24.3001 40.6377 23.2238 41.3018 22.4214C41.9714 21.619 42.8651 21.2178 43.9829 21.2178C44.5916 21.2178 45.1395 21.3589 45.6265 21.6411C46.1134 21.9233 46.5008 22.3162 46.7886 22.8198H46.8135V21.3672H48.1914V29.8257C48.1914 30.8605 47.8372 31.6906 47.1289 32.3159C46.4206 32.9412 45.4743 33.2539 44.29 33.2539ZM50.0757 30V21.3672H51.437V22.7451H51.4702C51.7192 22.2637 52.0762 21.8901 52.541 21.6245C53.0059 21.3534 53.562 21.2178 54.2095 21.2178C55.1502 21.2178 55.8835 21.5028 56.4092 22.0728C56.9349 22.6372 57.1978 23.4119 57.1978 24.397V30H55.7534V24.6543C55.7534 23.9515 55.5874 23.4175 55.2554 23.0522C54.9233 22.6815 54.4281 22.4961 53.7695 22.4961C53.0889 22.4961 52.5438 22.7174 52.1343 23.1602C51.7248 23.6029 51.52 24.1895 51.52 24.9199V30H50.0757ZM64.2451 18.022V25.7002C64.2451 26.6243 64.5329 27.377 65.1084 27.958C65.6895 28.5335 66.4891 28.8213 67.5073 28.8213C68.5256 28.8213 69.3224 28.5335 69.8979 27.958C70.479 27.377 70.7695 26.6243 70.7695 25.7002V18.022H72.2637V25.7998C72.2637 27.1003 71.8348 28.16 70.9771 28.979C70.1248 29.7925 68.9683 30.1992 67.5073 30.1992C66.0464 30.1992 64.887 29.7925 64.0293 28.979C63.1771 28.16 62.751 27.1003 62.751 25.7998V18.022H64.2451ZM78.5557 21.2178C79.6624 21.2178 80.5534 21.6245 81.2285 22.438C81.9092 23.2515 82.2495 24.3333 82.2495 25.6836C82.2495 27.0283 81.9119 28.1102 81.2368 28.9292C80.5617 29.7427 79.679 30.1494 78.5889 30.1494C77.9801 30.1494 77.4351 30.0111 76.9536 29.7344C76.4722 29.4577 76.1014 29.0786 75.8413 28.5972H75.8081V32.8804H74.3638V21.3672H75.7334V22.8281H75.7666C76.0378 22.3301 76.4168 21.9372 76.9038 21.6494C77.3908 21.3617 77.9414 21.2178 78.5557 21.2178ZM78.2734 28.8794C79.0426 28.8794 79.6514 28.5916 80.0996 28.0161C80.5479 27.4406 80.772 26.6631 80.772 25.6836C80.772 24.7041 80.5479 23.9266 80.0996 23.3511C79.6514 22.7756 79.0426 22.4878 78.2734 22.4878C77.5319 22.4878 76.9342 22.7811 76.4805 23.3677C76.0267 23.9543 75.7998 24.7262 75.7998 25.6836C75.7998 26.6465 76.0267 27.4212 76.4805 28.0078C76.9342 28.5889 77.5319 28.8794 78.2734 28.8794Z" fill="white"/>
    <rect x="0.5" y="0.5" width="108" height="47" rx="4.5" stroke="url(#paint0_linear_398_1299)"/>
    <defs>
        <linearGradient id="paint0_linear_398_1299" x1="54.5" y1="0" x2="54.5" y2="48" gradientUnits="userSpaceOnUse">
            <stop stop-color="white"/>
            <stop offset="1" stop-color="white" stop-opacity="0"/>
        </linearGradient>
    </defs>
</svg>