<svg width="101" height="100" viewBox="0 0 101 100" fill="none" xmlns="http://www.w3.org/2000/svg">
<path d="M46.7857 21.8558C48.7747 20.7074 51.2253 20.7074 53.2143 21.8558L72.7665 33.1442C74.7555 34.2926 75.9808 36.4148 75.9808 38.7115V61.2885C75.9808 63.5852 74.7555 65.7074 72.7665 66.8558L53.2143 78.1442C51.2253 79.2926 48.7747 79.2926 46.7857 78.1442L27.2335 66.8558C25.2445 65.7074 24.0192 63.5852 24.0192 61.2885V38.7115C24.0192 36.4148 25.2445 34.2926 27.2335 33.1442L46.7857 21.8558Z" fill="#919191"/>
<path d="M50.547 33.6002L37.6016 41.2256L50.7431 49.0517V64.9045L63.6885 57.0784V41.4262L50.547 33.6002Z" fill="#2D64E3"/>
</svg>
