<svg width="101" height="100" viewBox="0 0 101 100" fill="none" xmlns="http://www.w3.org/2000/svg">
<g clip-path="url(#clip0_274_2987)">
<path d="M28.644 75.8861V72.4351C28.644 71.115 27.8393 70.2505 26.458 70.2505C25.7674 70.2505 25.0164 70.4784 24.5001 71.2289C24.0977 70.599 23.5211 70.2505 22.6561 70.2505C22.0794 70.2505 21.5028 70.4247 21.0468 71.0546V70.3644H19.8398V75.8861H21.0468V72.8371C21.0468 71.8588 21.5631 71.3964 22.3678 71.3964C23.1724 71.3964 23.5747 71.9124 23.5747 72.8371V75.8861H24.7817V72.8371C24.7817 71.8588 25.3584 71.3964 26.1027 71.3964C26.9073 71.3964 27.3096 71.9124 27.3096 72.8371V75.8861H28.644ZM46.5473 70.3644H44.5893V68.6959H43.3824V70.3644H42.2894V71.4567H43.3824V73.9897C43.3824 75.2562 43.8987 76 45.28 76C45.7963 76 46.373 75.8258 46.7753 75.5979L46.4266 74.5593C46.0779 74.7871 45.6756 74.8474 45.3873 74.8474C44.8106 74.8474 44.5826 74.499 44.5826 73.9294V71.4567H46.5406V70.3644H46.5473ZM56.7931 70.2438C56.1025 70.2438 55.6398 70.5923 55.3515 71.0479V70.3577H54.1445V75.8794H55.3515V72.7701C55.3515 71.8521 55.7538 71.3294 56.5048 71.3294C56.7328 71.3294 57.0211 71.3897 57.2558 71.4433L57.6045 70.2907C57.3631 70.2438 57.0211 70.2438 56.7931 70.2438ZM41.3104 70.8201C40.7338 70.418 39.9291 70.2438 39.0641 70.2438C37.6828 70.2438 36.7642 70.934 36.7642 72.0263C36.7642 72.9443 37.4548 73.467 38.6618 73.6345L39.2385 73.6948C39.8688 73.8088 40.2174 73.983 40.2174 74.2711C40.2174 74.6732 39.7548 74.9613 38.9501 74.9613C38.1455 74.9613 37.5085 74.6732 37.1062 74.3851L36.5295 75.3031C37.1598 75.7655 38.0248 75.9933 38.8898 75.9933C40.4991 75.9933 41.4244 75.2428 41.4244 74.2108C41.4244 73.2325 40.6734 72.7165 39.5268 72.5423L38.9501 72.482C38.4338 72.4217 38.0315 72.3077 38.0315 71.966C38.0315 71.5639 38.4338 71.3361 39.0708 71.3361C39.7615 71.3361 40.4521 71.6242 40.8008 71.7985L41.3104 70.8201ZM73.4224 70.2438C72.7318 70.2438 72.2691 70.5923 71.9808 71.0479V70.3577H70.7738V75.8794H71.9808V72.7701C71.9808 71.8521 72.3831 71.3294 73.1341 71.3294C73.3621 71.3294 73.6504 71.3897 73.8851 71.4433L74.2338 70.3041C73.9991 70.2438 73.6571 70.2438 73.4224 70.2438ZM58.0001 73.1253C58.0001 74.7938 59.1534 76 60.937 76C61.7417 76 62.3183 75.8258 62.895 75.3701L62.3183 74.3918C61.8557 74.7402 61.3997 74.9077 60.8767 74.9077C59.8977 74.9077 59.207 74.2175 59.207 73.1253C59.207 72.0866 59.8977 71.3964 60.8767 71.3428C61.393 71.3428 61.8557 71.517 62.3183 71.8588L62.895 70.8804C62.3183 70.418 61.7417 70.2505 60.937 70.2505C59.1534 70.2438 58.0001 71.4567 58.0001 73.1253ZM69.1645 73.1253V70.3644H67.9575V71.0546C67.5552 70.5387 66.9786 70.2505 66.2276 70.2505C64.6719 70.2505 63.4649 71.4567 63.4649 73.1253C63.4649 74.7938 64.6719 76 66.2276 76C67.0322 76 67.6089 75.7119 67.9575 75.1959V75.8861H69.1645V73.1253ZM64.7323 73.1253C64.7323 72.1469 65.3626 71.3428 66.4019 71.3428C67.3809 71.3428 68.0715 72.0933 68.0715 73.1253C68.0715 74.1036 67.3809 74.9077 66.4019 74.9077C65.3693 74.8474 64.7323 74.0969 64.7323 73.1253ZM50.2889 70.2438C48.6796 70.2438 47.5263 71.3964 47.5263 73.1186C47.5263 74.8474 48.6796 75.9933 50.3493 75.9933C51.1539 75.9933 51.9585 75.7655 52.5955 75.2428L52.0189 74.3784C51.5562 74.7268 50.9796 74.9546 50.4096 74.9546C49.6586 74.9546 48.9143 74.6062 48.74 73.6345H52.8235C52.8235 73.4603 52.8235 73.3464 52.8235 73.1722C52.8772 71.3964 51.8378 70.2438 50.2889 70.2438ZM50.2889 71.2825C51.0399 71.2825 51.5562 71.7448 51.6702 72.6026H48.7936C48.9076 71.8588 49.4239 71.2825 50.2889 71.2825ZM80.2753 73.1253V68.1799H79.0683V71.0546C78.666 70.5387 78.0893 70.2505 77.3383 70.2505C75.7827 70.2505 74.5757 71.4567 74.5757 73.1253C74.5757 74.7938 75.7827 76 77.3383 76C78.143 76 78.7196 75.7119 79.0683 75.1959V75.8861H80.2753V73.1253ZM75.843 73.1253C75.843 72.1469 76.4734 71.3428 77.5127 71.3428C78.4917 71.3428 79.1823 72.0933 79.1823 73.1253C79.1823 74.1036 78.4917 74.9077 77.5127 74.9077C76.4734 74.8474 75.843 74.0969 75.843 73.1253ZM35.4365 73.1253V70.3644H34.2296V71.0546C33.8272 70.5387 33.2506 70.2505 32.4996 70.2505C30.9439 70.2505 29.737 71.4567 29.737 73.1253C29.737 74.7938 30.9439 76 32.4996 76C33.3042 76 33.8809 75.7119 34.2296 75.1959V75.8861H35.4365V73.1253ZM30.9506 73.1253C30.9506 72.1469 31.5809 71.3428 32.6203 71.3428C33.5993 71.3428 34.2899 72.0933 34.2899 73.1253C34.2899 74.1036 33.5993 74.9077 32.6203 74.9077C31.5809 74.8474 30.9506 74.0969 30.9506 73.1253Z" fill="white"/>
<path d="M59.0376 28.4294H40.9062V60.983H59.0376V28.4294Z" fill="#FF5A00"/>
<path d="M42.1145 44.7062C42.1145 38.0923 45.2258 32.2222 50 28.4294C46.4864 25.6686 42.0541 24 37.2196 24C25.7668 24 16.5 33.2608 16.5 44.7062C16.5 56.1516 25.7668 65.4124 37.2196 65.4124C42.0541 65.4124 46.4864 63.7438 50 60.983C45.2191 57.2438 42.1145 51.3201 42.1145 44.7062Z" fill="#EB001B"/>
<path d="M83.5 44.7062C83.5 56.1516 74.2332 65.4124 62.7804 65.4124C57.9459 65.4124 53.5136 63.7438 50 60.983C54.8346 57.1835 57.8855 51.3201 57.8855 44.7062C57.8855 38.0923 54.7742 32.2222 50 28.4294C53.5069 25.6686 57.9391 24 62.7737 24C74.2332 24 83.5 33.3211 83.5 44.7062Z" fill="#F79E1B"/>
</g>
<defs>
<clipPath id="clip0_274_2987">
<rect width="67" height="52" fill="white" transform="translate(16.5 24)"/>
</clipPath>
</defs>
</svg>
