<svg width="161" height="100" viewBox="0 0 161 100" fill="none" xmlns="http://www.w3.org/2000/svg">
<g clip-path="url(#clip0_274_2996)">
<path d="M58.6514 39.5993C58.3962 39.5993 58.1794 39.7853 58.1395 40.0385L55.1855 58.8439C55.1747 58.9126 55.179 58.9828 55.1978 59.0497C55.2167 59.1166 55.2498 59.1786 55.2948 59.2315C55.3398 59.2843 55.3957 59.3267 55.4586 59.3558C55.5215 59.3849 55.59 59.4 55.6593 59.4H59.1625C59.4173 59.4 59.6345 59.2137 59.6744 58.9608L60.5421 53.4384C60.5817 53.1856 60.7988 52.9992 61.054 52.9992H64.2391C67.9605 52.9992 71.1196 50.2735 71.6966 46.5801C72.2784 42.8554 69.3797 39.6074 65.2712 39.5993H58.6514ZM62.0569 43.7974H64.6052C66.7032 43.7974 67.3864 45.0401 67.1704 46.4143C66.9544 47.7915 65.8933 48.8059 63.8638 48.8059H61.27L62.0569 43.7974ZM78.8217 45.0757C77.9371 45.079 76.9193 45.261 75.7766 45.7388C73.1553 46.8355 71.8966 49.1022 71.362 50.7546C71.362 50.7546 69.6605 55.7962 73.5046 58.5661C73.5046 58.5661 77.0698 61.2326 81.083 58.4018L81.0138 58.8439C81.0031 58.9126 81.0073 58.9827 81.0261 59.0495C81.045 59.1164 81.078 59.1784 81.1229 59.2312C81.1679 59.284 81.2237 59.3265 81.2865 59.3556C81.3493 59.3848 81.4177 59.3999 81.4869 59.4H84.8125C85.0677 59.4 85.2845 59.2137 85.3244 58.9608L87.3474 46.0828C87.3582 46.0141 87.3541 45.9439 87.3353 45.8769C87.3165 45.81 87.2835 45.7479 87.2386 45.695C87.1936 45.6421 87.1378 45.5996 87.0749 45.5704C87.012 45.5412 86.9436 45.5261 86.8743 45.526H83.5486C83.2934 45.526 83.0763 45.7123 83.0368 45.9652L82.928 46.6584C82.928 46.6584 81.4759 45.0658 78.8217 45.0757ZM78.9305 49.1433C79.3124 49.1433 79.6617 49.1963 79.9751 49.2973C81.41 49.7597 82.2236 51.1435 81.9881 52.6434C81.6978 54.4904 80.1889 55.8503 78.2539 55.8503C77.8723 55.8503 77.523 55.7977 77.2093 55.6966C75.7747 55.2343 74.956 53.8505 75.1915 52.3505C75.4818 50.5036 76.9954 49.1433 78.9305 49.1433Z" fill="#003087"/>
<path d="M106.542 39.5993C106.287 39.5993 106.07 39.7853 106.03 40.0385L103.076 58.8439C103.065 58.9126 103.07 58.9828 103.088 59.0497C103.107 59.1166 103.14 59.1786 103.185 59.2315C103.23 59.2843 103.286 59.3267 103.349 59.3558C103.412 59.3849 103.481 59.4 103.55 59.4H107.053C107.308 59.4 107.525 59.2137 107.565 58.9608L108.433 53.4384C108.472 53.1856 108.689 52.9992 108.945 52.9992H112.13C115.851 52.9992 119.01 50.2735 119.587 46.5801C120.169 42.8554 117.27 39.6074 113.162 39.5993H106.542ZM109.947 43.7974H112.496C114.594 43.7974 115.277 45.0401 115.061 46.4143C114.845 47.7915 113.784 48.8059 111.754 48.8059H109.161L109.947 43.7974ZM126.712 45.0757C125.827 45.079 124.81 45.261 123.667 45.7388C121.046 46.8355 119.787 49.1022 119.252 50.7546C119.252 50.7546 117.552 55.7962 121.396 58.5661C121.396 58.5661 124.96 61.2326 128.974 58.4018L128.904 58.8439C128.894 58.9126 128.898 58.9828 128.917 59.0497C128.936 59.1166 128.969 59.1786 129.014 59.2315C129.059 59.2843 129.115 59.3267 129.178 59.3558C129.241 59.3849 129.309 59.4 129.378 59.4H132.704C132.959 59.4 133.176 59.2137 133.215 58.9608L135.239 46.0828C135.25 46.014 135.246 45.9437 135.227 45.8767C135.208 45.8098 135.175 45.7477 135.13 45.6947C135.085 45.6418 135.029 45.5993 134.966 45.5702C134.903 45.541 134.835 45.5259 134.765 45.526H131.44C131.184 45.526 130.967 45.7123 130.928 45.9652L130.819 46.6584C130.819 46.6584 129.366 45.0658 126.712 45.0757ZM126.821 49.1433C127.203 49.1433 127.552 49.1963 127.865 49.2973C129.3 49.7597 130.114 51.1435 129.878 52.6434C129.588 54.4904 128.079 55.8503 126.144 55.8503C125.763 55.8503 125.413 55.7977 125.1 55.6966C123.665 55.2343 122.846 53.8505 123.082 52.3505C123.372 50.5036 124.886 49.1433 126.821 49.1433Z" fill="#0070E0"/>
<path d="M88.9246 45.5259C88.6609 45.5259 88.4735 45.7843 88.554 46.0361L92.2001 57.3936L88.9033 62.7458C88.7433 63.0056 88.9293 63.3412 89.2336 63.3412H93.1301C93.2415 63.3411 93.351 63.3121 93.4481 63.2572C93.5451 63.2022 93.6264 63.123 93.684 63.0273L103.867 46.1177C104.023 45.8578 103.836 45.5256 103.534 45.5256H99.6379C99.5253 45.5257 99.4148 45.5552 99.3171 45.6112C99.2194 45.6672 99.1379 45.7478 99.0806 45.845L95.0724 52.6379L93.0378 45.8953C92.9715 45.6759 92.7698 45.5256 92.5417 45.5256L88.9246 45.5259Z" fill="#003087"/>
<path d="M139.019 39.5993C138.765 39.5993 138.547 39.7856 138.508 40.0385L135.553 58.8432C135.542 58.9119 135.546 58.9822 135.565 59.0492C135.584 59.1162 135.617 59.1783 135.662 59.2312C135.707 59.2842 135.763 59.3267 135.826 59.3558C135.889 59.3849 135.957 59.4 136.027 59.4H139.53C139.785 59.4 140.002 59.2137 140.042 58.9608L142.996 40.1554C143.006 40.0868 143.002 40.0166 142.983 39.9498C142.965 39.8829 142.932 39.8209 142.887 39.7681C142.842 39.7153 142.786 39.6728 142.723 39.6437C142.66 39.6146 142.592 39.5994 142.523 39.5993H139.019Z" fill="#0070E0"/>
<path d="M29.444 39.5993C29.2183 39.5995 29.0001 39.6805 28.8286 39.8277C28.657 39.9749 28.5434 40.1786 28.5081 40.4024L26.9531 50.3026C27.0256 49.8402 27.4225 49.4995 27.889 49.4995H32.4456C37.0315 49.4995 40.9229 46.1412 41.6339 41.5903C41.6868 41.2505 41.7168 40.9076 41.7236 40.5637C40.5582 39.9503 39.1892 39.5993 37.6891 39.5993H29.444Z" fill="#001C64"/>
<path d="M41.7226 40.5641C41.7158 40.9079 41.6858 41.2509 41.6329 41.5906C40.9219 46.1416 37.0301 49.4998 32.4446 49.4998H27.888C27.4219 49.4998 27.0246 49.8402 26.9521 50.3029L25.5223 59.4004L24.6267 65.1076C24.6093 65.2179 24.6158 65.3306 24.646 65.4381C24.6761 65.5456 24.7291 65.6452 24.8014 65.7301C24.8736 65.815 24.9633 65.8832 25.0643 65.9299C25.1653 65.9766 25.2753 66.0008 25.3865 66.0007H30.3323C30.558 66.0005 30.7762 65.9196 30.9477 65.7724C31.1193 65.6252 31.2329 65.4214 31.2682 65.1976L32.5709 56.9033C32.6062 56.6794 32.7199 56.4755 32.8916 56.3283C33.0633 56.1811 33.2817 56.1002 33.5075 56.1002H36.4194C41.0054 56.1002 44.8967 52.7419 45.6077 48.191C46.1126 44.961 44.4921 42.0218 41.7226 40.5641Z" fill="#0070E0"/>
<path d="M23.8265 33.0002C23.3604 33.0002 22.9632 33.3406 22.8907 33.8026L19.0096 58.5074C18.936 58.9764 19.297 59.4006 19.77 59.4006H25.5254L26.9545 50.3031L28.5095 40.403C28.5447 40.1792 28.6584 39.9754 28.8299 39.8282C29.0014 39.681 29.2196 39.6001 29.4453 39.5999H37.6905C39.1909 39.5999 40.5595 39.9512 41.725 40.5643C41.8048 36.421 38.3989 33.0002 33.7163 33.0002H23.8265Z" fill="#003087"/>
</g>
<defs>
<clipPath id="clip0_274_2996">
<rect width="124" height="33" fill="white" transform="translate(19 33)"/>
</clipPath>
</defs>
</svg>
