<svg width="101" height="100" viewBox="0 0 101 100" fill="none" xmlns="http://www.w3.org/2000/svg">
<g clip-path="url(#clip0_274_2958)">
<path fill-rule="evenodd" clip-rule="evenodd" d="M43.272 24.0315C42.8357 24.0599 42.373 24.1094 42.2438 24.1413C42.1144 24.1732 41.7443 24.2284 41.4211 24.2636C41.0979 24.2991 40.815 24.3392 40.7925 24.3527C40.7697 24.3665 40.4921 24.4268 40.1754 24.4867C39.4534 24.6236 38.8816 24.7528 38.5246 24.8597C38.3725 24.9053 38.01 25.0115 37.7191 25.0957C37.4284 25.1798 37.1375 25.2723 37.0728 25.3013C37.0081 25.3301 36.8363 25.3907 36.6908 25.4359C36.2987 25.5578 35.9213 25.6936 35.7124 25.788C35.6106 25.8341 35.5098 25.8718 35.4884 25.8718C35.4671 25.8718 35.3058 25.9368 35.1301 26.0159C34.9542 26.0951 34.6584 26.2277 34.4726 26.3106C33.5578 26.7187 32.2138 27.4222 31.5198 27.8561C31.1753 28.0716 30.4391 28.5471 30.3753 28.5956C30.3423 28.6206 30.0906 28.8008 29.8157 28.9961C26.4439 31.3928 23.4335 34.9345 21.6284 38.6285C21.4736 38.9453 21.3249 39.2452 21.298 39.295C21.271 39.3447 21.1766 39.5651 21.0884 39.7846C20.9999 40.004 20.8821 40.2873 20.8265 40.4139C20.5139 41.1246 19.9356 42.9037 19.6753 43.9559C18.5245 48.6069 18.8665 54.5302 20.5332 58.8146C20.994 59.9992 21.1976 60.4694 21.6271 61.3389C22.0691 62.2338 22.6713 63.3194 22.9428 63.71C22.9978 63.7892 23.195 64.0832 23.381 64.3632C24.7393 66.4079 26.8799 68.7127 28.8961 70.3016C30.2605 71.3767 32.2894 72.6422 33.8116 73.3673C34.7815 73.8292 35.4505 74.1107 36.295 74.4121C36.4814 74.4786 36.7723 74.5826 36.9415 74.6432C37.1107 74.7037 37.5002 74.8238 37.8073 74.9102C38.1143 74.9963 38.4713 75.1009 38.6005 75.1425C39.0461 75.2854 40.547 75.5984 41.2449 75.6939C41.4711 75.7249 41.8941 75.7878 42.185 75.8337C43.5881 76.0556 47.4814 76.0554 48.8837 75.8335C49.1746 75.7876 49.6331 75.7216 49.9029 75.6872C50.1726 75.6527 50.4502 75.6037 50.5198 75.5784C50.5895 75.5529 50.7787 75.5136 50.9404 75.491C51.2794 75.4434 51.9921 75.2782 52.5856 75.1096C53.836 74.7543 54.0271 74.6927 54.7414 74.4143C54.8927 74.3552 55.0513 74.306 55.0938 74.305C55.1364 74.304 55.2768 74.2529 55.4062 74.1918C55.5354 74.1306 55.6595 74.0797 55.6819 74.0785C55.7041 74.0775 55.9553 73.9718 56.24 73.8436C57.927 73.0841 59.143 72.4099 60.806 71.3123C62.4594 70.2208 64.9319 67.9398 66.3311 66.2153C66.732 65.7212 66.7323 65.7414 66.321 65.6998C65.3726 65.6033 64.9288 65.5437 64.8435 65.5007C64.7916 65.4746 64.6075 65.4356 64.4342 65.4138C64.261 65.3922 64.0098 65.3401 63.8761 65.298C63.7422 65.2558 63.3946 65.1501 63.1039 65.0629C62.813 64.9757 62.4164 64.841 62.2225 64.7638C62.0285 64.6863 61.7921 64.5926 61.697 64.5552C59.0816 63.5291 56.2795 61.1239 54.7073 58.5555C54.3292 57.9377 53.4965 56.2545 53.4965 56.1078C53.4965 56.07 53.4596 55.9572 53.4145 55.8573C53.292 55.5858 53.0343 54.731 52.9906 54.4508C52.9695 54.3155 52.9292 54.1909 52.9011 54.1738C52.873 54.1568 52.8497 54.0732 52.8492 53.9879C52.8473 53.6736 52.8378 53.6716 51.7559 53.743C51.2103 53.779 50.5789 53.832 50.3527 53.8609C50.1265 53.8897 49.6307 53.9301 49.251 53.9509L48.5605 53.9882V60.169C48.5605 63.5685 48.5444 66.3908 48.5248 66.441C48.493 66.5224 48.1637 66.532 45.4105 66.532H42.3319V60.2545V53.9769L42.141 53.9707C42.0359 53.9675 41.6856 53.9445 41.3624 53.9199C41.0391 53.8952 40.2327 53.8335 39.5702 53.783C38.9076 53.7322 38.2465 53.6652 38.101 53.6339C37.9556 53.6025 37.5061 53.5393 37.1021 53.4932C35.4795 53.3083 32.4857 52.6927 32.1957 52.4844C32.1633 52.4611 32.0179 52.41 31.8724 52.3708C30.8536 52.096 29.66 51.3248 29.4364 50.7967C29.1095 50.0247 29.8643 49.2475 31.5492 48.6213C31.7432 48.5493 31.9548 48.4671 32.0193 48.4386C32.1462 48.3829 32.4668 48.2919 33.3414 48.063C33.9305 47.9088 34.3282 47.8254 35.1925 47.6743C35.4834 47.6236 35.8327 47.5569 35.9688 47.5262C36.1048 47.4956 36.5676 47.4311 36.9971 47.3828C37.4266 47.3345 37.9101 47.2708 38.0717 47.2411C38.2334 47.2115 38.7753 47.1587 39.2763 47.1238C39.7773 47.0886 40.3589 47.036 40.5691 47.0066C40.7792 46.9771 41.179 46.9524 41.4578 46.9517C41.7366 46.9512 42.0473 46.9344 42.1483 46.9147L42.3319 46.8788V44.9857V43.0927L37.5575 43.078L32.7832 43.0633V40.0397V37.0159H45.4168H58.0504L58.0663 38.1846L58.0822 39.3533L58.4481 39.0774C59.4865 38.2939 61.0035 37.4441 62.0755 37.0452C62.3503 36.9429 62.6279 36.836 62.6926 36.8074C63.5478 36.4289 66.1979 35.9718 67.6379 35.9543L67.9412 35.9505L67.6949 35.5906C67.3208 35.0438 66.6074 34.1027 66.1135 33.5042C65.1847 32.379 63.4354 30.6651 62.3657 29.8326C61.2825 28.9896 61.1249 28.8757 60.3083 28.3466C60.0038 28.1492 59.6884 27.9441 59.6076 27.8909C58.7577 27.3309 56.1546 26.0349 55.4943 25.8429C55.4135 25.8194 55.321 25.7817 55.2887 25.7589C55.2564 25.7363 54.9788 25.6333 54.6716 25.53C54.3646 25.4269 54.0605 25.3213 53.996 25.2956C53.9313 25.2699 53.6404 25.1798 53.3495 25.0957C53.0586 25.0115 52.6962 24.9053 52.544 24.8597C51.6828 24.6019 50.0186 24.2917 48.3843 24.0846C47.7644 24.006 44.2244 23.9691 43.272 24.0315ZM48.5605 44.985V46.8781L48.7809 46.9137C48.9021 46.9334 49.2134 46.9497 49.4728 46.95C49.7323 46.9504 50.1553 46.9759 50.413 47.0069C50.6707 47.0379 51.2386 47.0895 51.6748 47.1217C52.1111 47.1539 52.5901 47.1954 52.739 47.2137L53.01 47.2473L53.0486 47.01C53.07 46.8796 53.111 46.7287 53.1399 46.6745C53.1687 46.6206 53.2495 46.3949 53.3193 46.1732C53.5729 45.3671 54.0033 44.4101 54.4744 43.6047C54.6151 43.364 54.7303 43.1501 54.7303 43.1296C54.7303 43.1088 53.3422 43.092 51.6454 43.092H48.5605V44.985ZM48.5605 49.5232C48.5605 50.7006 48.5444 51.7048 48.5248 51.7548C48.493 51.8364 48.1637 51.846 45.4105 51.846H42.3319V49.6207V47.3955L41.3328 47.4368C37.3264 47.603 32.9909 48.4127 31.8436 49.2091C31.126 49.7074 31.0697 50.1312 31.6586 50.6043C31.938 50.8286 32.769 51.2103 33.2272 51.3248C33.3708 51.3608 33.5412 51.4147 33.6059 51.4451C33.7296 51.5028 34.213 51.6162 35.0455 51.7828C35.3203 51.8378 35.5846 51.8991 35.6332 51.919C35.8881 52.0238 38.7379 52.3552 40.2165 52.4518C40.9113 52.4974 41.7707 52.563 42.1263 52.5978C43.6633 52.7481 51.1075 52.5716 52.0094 52.3636C52.1449 52.3324 52.33 52.3067 52.4207 52.3067L52.5856 52.3069L52.5686 51.0625C52.5522 49.8513 52.577 49.4958 52.7607 48.3086C52.8095 47.9942 52.8422 47.73 52.8333 47.7214C52.7625 47.6518 50.9939 47.4956 49.4859 47.4255L48.5605 47.3827V49.5232Z" fill="#1CA37B"/>
<path fill-rule="evenodd" clip-rule="evenodd" d="M66.1041 36.4357C62.3047 36.9233 59.101 38.6139 56.6031 41.4497C56.2778 41.819 55.9723 42.1801 55.9241 42.2522C55.8757 42.3243 55.7837 42.4509 55.7193 42.5335C53.498 45.3819 52.4286 49.8144 53.0644 53.5387C53.2612 54.6926 53.3021 54.867 53.5933 55.7956C54.9832 60.2288 58.6923 63.9225 63.2373 65.3998C66.1812 66.3567 70.0622 66.3233 72.8323 65.3173C74.4098 64.7446 75.3094 64.2907 76.6098 63.4119C77.9128 62.5314 79.567 60.8523 80.4646 59.4993C80.7261 59.1052 81.3743 58.0082 81.3743 57.9598C81.3743 57.9488 81.4679 57.7505 81.5823 57.5188C81.8689 56.9386 82.1107 56.3099 82.4007 55.3907C82.8283 54.0356 83.1112 51.3969 82.9587 50.185C82.7463 48.4965 82.6379 47.8944 82.4005 47.0863C82.2419 46.5464 82.0045 45.8769 81.95 45.8161C81.9231 45.7858 81.9008 45.7237 81.9008 45.678C81.9008 45.5491 81.2326 44.2064 80.8615 43.5894C79.783 41.797 77.8726 39.8135 76.2842 38.8372C76.1073 38.7286 75.9536 38.6196 75.943 38.5951C75.9322 38.5707 75.8967 38.5505 75.8642 38.5505C75.8316 38.5505 75.735 38.5017 75.6497 38.4417C75.2701 38.1756 73.3586 37.2774 73.1719 37.2774C73.1268 37.2774 73.0648 37.2552 73.0342 37.228C72.9726 37.1731 72.099 36.9024 71.7812 36.8398C71.6696 36.8177 71.538 36.7778 71.4886 36.7508C71.4393 36.7237 71.1488 36.6606 70.8432 36.6103C70.5375 36.56 70.1556 36.4953 69.9948 36.4662C69.4615 36.37 66.7802 36.349 66.1041 36.4357ZM60.432 42.6072C60.8327 42.6721 61.3804 42.7608 61.6494 42.8043C61.9183 42.8477 62.2606 42.9114 62.41 42.9457C62.6902 43.01 63.3704 43.1307 64.2236 43.2678C64.4926 43.311 64.8349 43.3743 64.9843 43.4086C65.1336 43.4429 65.4927 43.5114 65.7823 43.5606C66.3591 43.6589 67.1856 43.8078 68.1812 43.9929C68.535 44.0587 69.1143 44.1652 69.4683 44.2298C69.8222 44.2945 70.3882 44.3985 70.7262 44.461C71.064 44.5237 71.5643 44.6117 71.8377 44.6566C72.1113 44.7015 72.3877 44.7544 72.4521 44.7742C72.5164 44.794 72.8455 44.8585 73.1834 44.9174C74.6491 45.1733 74.3755 45.0057 76.2842 46.8162C76.9438 47.4418 77.6498 48.1105 77.8529 48.3023C78.2414 48.6688 78.3425 48.9183 78.2501 49.2826C78.2169 49.4138 77.0911 50.8506 76.5228 51.4873C76.4076 51.6162 75.9376 52.1814 75.4783 52.7434C75.0189 53.3051 74.6103 53.7985 74.5699 53.8399C74.5297 53.8812 74.0498 54.4569 73.5036 55.1194C71.6334 57.3879 71.3027 57.7865 71.0499 58.0785C70.7981 58.3696 69.5827 59.8326 68.4034 61.2643C67.6854 62.1361 67.3368 62.5085 67.2388 62.5085C67.1222 62.5085 66.8199 62.1237 66.7763 61.9197C66.7539 61.8139 66.7005 61.6491 66.6578 61.5537C66.6152 61.4582 66.5093 61.1979 66.4225 60.9749C66.3356 60.7521 66.2152 60.4607 66.155 60.3271C66.0949 60.1936 66.0448 60.0635 66.0436 60.0378C66.0425 60.0122 65.9908 59.887 65.9287 59.7598C65.8664 59.6324 65.8147 59.5062 65.8136 59.4792C65.8124 59.4521 65.7733 59.348 65.7263 59.2476C65.6794 59.1474 65.5505 58.8439 65.4398 58.5734C65.1731 57.9218 65.061 57.656 64.9595 57.4361C64.9134 57.3359 64.8755 57.2368 64.8755 57.2161C64.8755 57.1953 64.8229 57.0624 64.7585 56.921C64.6941 56.7795 64.5888 56.548 64.5244 56.4064C64.4602 56.2651 64.4074 56.1332 64.4074 56.1134C64.4074 56.0938 64.3462 55.9426 64.2713 55.7775C64.1965 55.6124 64.0217 55.2039 63.883 54.8697C63.7443 54.5356 63.5974 54.184 63.5567 54.0885C63.5159 53.9931 63.4136 53.7457 63.3292 53.5387C63.2449 53.332 63.153 53.1218 63.1248 53.0717C63.0968 53.0217 63.0019 52.8003 62.914 52.5798C62.8263 52.3593 62.6919 52.0413 62.6155 51.8733C62.5391 51.7052 62.4768 51.5348 62.4768 51.4943C62.4768 51.4539 62.4535 51.396 62.4251 51.3657C62.3724 51.3098 62.1886 50.8794 61.6231 49.488C61.4483 49.0582 61.2558 48.6025 61.1952 48.4751C61.1347 48.3479 60.8038 47.5406 60.46 46.6812C60.1163 45.822 59.8007 45.0407 59.7588 44.9451C59.717 44.8498 59.6119 44.5893 59.5252 44.3665C59.4387 44.1437 59.325 43.8703 59.273 43.7588C59.0126 43.2029 59.2568 42.3197 59.6313 42.4619C59.6712 42.4769 60.0315 42.5425 60.432 42.6072ZM62.6824 44.5996C62.9071 44.7812 63.353 45.1417 63.6733 45.4005C63.9935 45.6593 64.4938 46.0666 64.785 46.3056C65.0762 46.5445 65.6697 47.024 66.1041 47.3711C66.5386 47.7181 66.9203 48.0304 66.9525 48.065C66.9847 48.0997 67.1074 48.1992 67.2252 48.2863C67.3432 48.3734 67.4748 48.4786 67.5178 48.5201C67.5608 48.5617 67.8529 48.7995 68.1669 49.0484L68.7378 49.5012L68.9992 49.2893C69.143 49.1727 69.2948 49.046 69.3365 49.0078C69.4855 48.8713 70.2794 48.2088 71.9998 46.7854C72.3623 46.4853 72.6457 46.2184 72.6295 46.1923C72.5973 46.1408 72.6051 46.1425 71.5744 45.9578C71.1883 45.8886 70.596 45.7812 70.258 45.7193C69.9201 45.6574 69.3936 45.5675 69.088 45.5198C68.7822 45.472 68.4795 45.4108 68.4151 45.3838C68.3507 45.3569 68.0217 45.2907 67.6839 45.2366C67.0963 45.1426 66.5805 45.0503 65.2265 44.7966C64.3314 44.6289 63.168 44.4202 62.4775 44.3037C62.28 44.2704 62.2864 44.2797 62.6824 44.5996ZM61.464 45.3358C61.5456 45.5348 61.6511 45.8015 61.6983 45.9285C61.7453 46.0556 61.805 46.1857 61.8305 46.2179C61.8563 46.2499 61.8969 46.3412 61.9207 46.4209C61.9446 46.5004 62.0102 46.6697 62.0666 46.7971C62.123 46.9243 62.2397 47.2108 62.3263 47.4336C62.4128 47.6563 62.5198 47.9168 62.5638 48.0122C62.7393 48.3916 63.1203 49.3017 63.1203 49.3414C63.1203 49.3647 63.1575 49.4658 63.203 49.5659C63.2484 49.6663 63.3537 49.9111 63.4369 50.11C63.5203 50.309 63.6564 50.6344 63.7398 50.8334C63.823 51.0322 63.9283 51.2771 63.9737 51.3774C64.0193 51.4778 64.0564 51.5768 64.0564 51.5976C64.0564 51.6185 64.1049 51.7446 64.1645 51.8782C64.2238 52.0117 64.3462 52.3033 64.4362 52.5261C64.6046 52.9424 64.73 53.2359 64.8971 53.6054C64.9495 53.7216 64.9933 53.8388 64.9945 53.8659C64.9956 53.8929 65.0473 54.0191 65.1096 54.1465C65.1717 54.2737 65.2234 54.4001 65.2245 54.4269C65.2257 54.454 65.2643 54.5581 65.3106 54.6585C65.4239 54.904 65.5324 55.1633 65.9075 56.085C66.0824 56.5147 66.2627 56.9458 66.3083 57.0429C66.3539 57.14 66.5358 57.5761 66.7126 58.012C67.0413 58.8222 67.1523 59.0558 67.1554 58.9444C67.1627 58.6857 67.3438 57.0157 67.3855 56.8208C67.4144 56.6867 67.4552 56.3295 67.4762 56.0272C67.4973 55.7248 67.5507 55.2561 67.5948 54.9856C67.6386 54.715 67.6915 54.2852 67.7121 54.0306C67.7326 53.776 67.7853 53.3334 67.8292 53.0469C67.8731 52.7604 67.9272 52.2918 67.9495 52.0053C67.9718 51.7188 68.0228 51.295 68.0628 51.0634L68.1354 50.6425L67.8365 50.399C67.672 50.2653 67.4717 50.0983 67.3913 50.028C67.3109 49.958 67.0367 49.7273 66.7821 49.5153C66.5274 49.3036 66.2864 49.1001 66.2462 49.0631C66.206 49.0262 66.0612 48.9048 65.9242 48.7935C65.7874 48.6821 65.3966 48.356 65.056 48.0687C64.7154 47.7815 64.3744 47.495 64.2983 47.4322C64.2221 47.3693 63.8506 47.0574 63.4729 46.7391C61.0468 44.695 61.2624 44.8456 61.464 45.3358ZM73.7598 46.987C73.5783 47.1371 73.2364 47.4162 73.0004 47.6071C71.5202 48.8047 70.5461 49.6185 70.5673 49.6393C70.5977 49.6696 71.8106 49.4685 73.0371 49.2297C73.2624 49.1858 73.8416 49.0818 74.3243 48.9983C74.8069 48.9148 75.3862 48.8083 75.6114 48.7614C75.8367 48.7146 76.0669 48.6766 76.1233 48.6771C76.331 48.6785 76.2118 48.5581 74.3903 46.9281C74.0963 46.6649 74.1565 46.6592 73.7598 46.987ZM75.558 50.0521C75.534 50.0761 75.2071 50.1396 74.8317 50.1935C74.1708 50.2883 73.4524 50.4006 71.9839 50.6383C71.5979 50.7008 70.9396 50.8052 70.5213 50.8704C70.1031 50.9357 69.6686 51.0104 69.5562 51.0364L69.3517 51.0841L69.2459 52.0943C69.0422 54.0384 68.9341 54.9574 68.8988 55.0434C68.8793 55.0911 68.8332 55.5078 68.7964 55.9693C68.7595 56.4309 68.7021 56.9646 68.6685 57.1557C68.6349 57.3466 68.5761 57.8366 68.5378 58.2443L68.468 58.9858L68.6473 58.7941C68.746 58.6886 69.0621 58.3159 69.3496 57.9657C69.6371 57.6157 69.9193 57.2771 69.9769 57.2135C70.0343 57.1498 70.3737 56.7461 70.7312 56.3166C71.0888 55.8869 71.5467 55.3399 71.7491 55.1013C72.422 54.3074 73.0309 53.5832 73.6221 52.873C73.944 52.4865 74.3784 51.9648 74.5875 51.7137C74.7967 51.4627 75.1267 51.0739 75.3209 50.8499C75.5154 50.6259 75.7488 50.3452 75.84 50.2258L76.0055 50.0087H75.8036C75.6925 50.0087 75.582 50.0282 75.558 50.0521Z" fill="#FB040C"/>
</g>
<defs>
<clipPath id="clip0_274_2958">
<rect width="64" height="52" fill="white" transform="translate(19 24)"/>
</clipPath>
</defs>
</svg>
