<svg width="101" height="100" viewBox="0 0 101 100" fill="none" xmlns="http://www.w3.org/2000/svg">
<g clip-path="url(#clip0_274_2968)">
<path d="M65.8179 34.0508C58.8665 34.0508 52.6544 37.7876 52.6544 44.6916C52.6544 52.6092 63.6718 53.1561 63.6718 57.1337C63.6718 58.8084 61.8212 60.3076 58.6604 60.3076C54.1747 60.3076 50.822 58.2128 50.822 58.2128L49.3874 65.1797C49.3874 65.1797 53.2496 66.9492 58.3773 66.9492C65.9774 66.9492 71.9578 63.0289 71.9578 56.0069C71.9578 47.6405 60.8945 47.1099 60.8945 43.4181C60.8945 42.1061 62.4137 40.6686 65.5654 40.6686C69.1215 40.6686 72.0229 42.1921 72.0229 42.1921L73.4268 35.4633C73.4268 35.4633 70.2699 34.0508 65.8179 34.0508ZM2.2191 34.5587L2.05078 35.5744C2.05078 35.5744 4.97526 36.1294 7.60922 37.2367C11.0007 38.5065 11.2423 39.2456 11.8134 41.5414L18.0375 66.4255H26.3809L39.2346 34.5587H30.9103L22.6511 56.2251L19.2808 37.8596C18.9717 35.7577 17.4061 34.5587 15.4897 34.5587H2.2191ZM42.5819 34.5587L36.0518 66.4255H43.9897L50.4968 34.5587H42.5819ZM86.8543 34.5587C84.9402 34.5587 83.926 35.6215 83.1818 37.4787L71.5523 66.4255H79.8766L81.4871 61.601H91.6285L92.6078 66.4255H99.9528L93.5451 34.5587H86.8543ZM87.9369 43.1681L90.4044 55.1261H83.7939L87.9369 43.1681Z" fill="#1434CB"/>
</g>
<defs>
<clipPath id="clip0_274_2968">
<rect width="98" height="33" fill="white" transform="translate(2 34)"/>
</clipPath>
</defs>
</svg>
