<svg width="101" height="100" viewBox="0 0 101 100" fill="none" xmlns="http://www.w3.org/2000/svg">
<g clip-path="url(#clip0_274_2980)">
<path d="M5.14942 69.3333V58.0278H2.05469V54.5278H11.9836V58.0278H8.8889V69.3333H5.14942ZM13.8147 69.3333V54.5H17.7347C19.2821 54.5 20.3394 54.5833 20.9584 54.7222C21.5515 54.8611 22.0931 55.1389 22.5315 55.5C23.0215 55.9167 23.4084 56.4167 23.6663 57.0556C23.9242 57.6944 24.0531 58.3889 24.0531 59.1389C24.0531 60.2778 23.7952 61.2222 23.2794 61.9444C22.7636 62.6667 21.99 63.1389 20.9842 63.3889L24.7236 69.3611H20.4942L17.3478 63.5556V69.3611L13.8147 69.3333ZM17.3221 61.5278H18.0184C18.8178 61.5278 19.411 61.3889 19.7978 61.0833C20.1589 60.7778 20.3652 60.3333 20.3652 59.6944C20.3652 58.9444 20.1847 58.4167 19.8494 58.1111C19.5142 57.8056 18.921 57.6389 18.0957 57.6389H17.3478L17.3221 61.5278Z" fill="#406CDC"/>
<path d="M24.5423 69.3333L29.2875 54.5H33.9812L38.7265 69.3333H35.0128L34.3165 66.6667H28.9781L28.256 69.3333H24.5423ZM29.7775 63.8056H33.517L32.1244 58.9167C32.047 58.6667 31.9954 58.4444 31.9438 58.1944L31.6602 56.9167C31.5828 57.2778 31.5054 57.6389 31.4281 57.9722C31.3507 58.3056 31.2733 58.6111 31.196 58.9167L29.7775 63.8056ZM40.0417 69.3333V54.5H43.6523L48.8617 62.1111C48.9649 62.2778 49.1196 62.5833 49.3517 63.0556C49.5839 63.5278 49.8417 64.0833 50.0996 64.7222C50.0223 64.1667 49.9707 63.6389 49.9449 63.0833C49.9191 62.6111 49.8933 62.1667 49.8933 61.8056V54.4722H53.5039V69.3056H49.8933L44.6838 61.6389C44.5807 61.4722 44.4002 61.1667 44.1681 60.6944C43.936 60.2222 43.6781 59.6667 43.4202 59.0278C43.4975 59.6389 43.5491 60.1944 43.5749 60.6667C43.6007 61.1389 43.6265 61.5833 43.6265 61.9444V69.2778H40.0417V69.3333ZM57.0628 64.5556C57.6302 65.25 58.1717 65.75 58.7133 66.0833C59.2549 66.4167 59.7965 66.5833 60.3381 66.5833C60.8281 66.5833 61.2407 66.4445 61.576 66.1389C61.9112 65.8611 62.066 65.4722 62.066 65.0278C62.066 64.5278 61.937 64.1667 61.6533 63.8889C61.3696 63.6111 60.7507 63.3333 59.7449 63.0556C58.4038 62.6667 57.4496 62.1667 56.8823 61.5278C56.3149 60.8889 56.057 60.0278 56.057 58.9444C56.057 57.5278 56.4954 56.3611 57.3723 55.4722C58.2491 54.5833 59.3838 54.1389 60.8023 54.1389C61.5502 54.1389 62.2723 54.25 62.9686 54.4722C63.6391 54.6944 64.2838 55.0278 64.9028 55.4722L63.7165 58.3889C63.3296 58.0278 62.8912 57.7222 62.4012 57.5C61.9886 57.3056 61.5244 57.1944 61.0602 57.1944C60.6217 57.1944 60.2349 57.3056 59.9512 57.5556C59.6933 57.75 59.5128 58.0833 59.5386 58.4444C59.5386 58.8056 59.6675 59.1111 59.8996 59.3333C60.1575 59.5556 60.6217 59.7778 61.3438 59.9722L61.5244 60.0278C63.0459 60.4722 64.0517 60.9722 64.5417 61.5C64.877 61.8611 65.1091 62.3056 65.2896 62.8056C65.4702 63.3056 65.5475 63.8889 65.5475 64.5C65.5475 66.0833 65.0575 67.3333 64.1033 68.3056C63.1491 69.25 61.8596 69.75 60.2607 69.75C59.3065 69.75 58.4296 69.5833 57.6302 69.2222C56.8565 68.8611 56.0828 68.3333 55.3607 67.5833C55.3865 67.5556 57.0628 64.5556 57.0628 64.5556ZM67.6365 69.3333V54.5H76.0696V57.7778H71.2986V60.3611H75.8117V63.5278H71.2986V69.3611L67.6365 69.3333ZM78.107 69.3333V54.5H86.5402V57.7778H81.7691V60.3611H86.2823V63.5278H81.7691V66.0278H86.5402V69.3611L78.107 69.3333ZM89.0417 69.3333V54.5H92.9617C94.5091 54.5 95.5665 54.5833 96.1854 54.7222C96.7786 54.8611 97.3202 55.1389 97.7586 55.5C98.2486 55.9167 98.6354 56.4167 98.8933 57.0556C99.1512 57.6944 99.3059 58.3889 99.3059 59.1389C99.3059 60.2778 99.048 61.2222 98.5323 61.9444C98.0165 62.6667 97.2428 63.1389 96.237 63.3889L99.9765 69.3611H95.747L92.6007 63.5556V69.3611L89.0417 69.3333ZM92.5491 61.5278H93.2454C94.0449 61.5278 94.6381 61.3889 95.0249 61.0833C95.386 60.7778 95.5923 60.3333 95.5923 59.6944C95.5923 58.9444 95.4117 58.4167 95.0765 58.1111C94.7412 57.8056 94.1481 57.6389 93.3228 57.6389H92.5749V61.5278H92.5491ZM45.0707 30.4167L47.5723 40.5833C47.7012 41.0556 47.8044 41.5278 47.9075 42.0278C48.0107 42.5278 48.1138 43.0833 48.217 43.75C48.346 43 48.4749 42.3611 48.5523 41.8611C48.6554 41.3611 48.7328 40.9444 48.836 40.5833L51.1828 30.4167H56.6502L51.0281 51.8333H45.9991L43.5491 42.6944C43.446 42.3611 43.317 41.75 43.1107 40.8056C43.0075 40.3889 42.956 40.0556 42.9044 39.8333L42.7238 40.6944C42.5691 41.3611 42.4144 42.0278 42.2596 42.6944L39.8354 51.8333H34.7549L29.1586 30.4167H34.626L36.8954 40.6667C36.9986 41.1944 37.1017 41.7222 37.2049 42.25C37.3081 42.7778 37.4112 43.3056 37.4886 43.8611C37.6949 42.7778 37.927 41.7222 38.1849 40.6667L40.6865 30.4167C40.7123 30.4167 45.0707 30.4167 45.0707 30.4167ZM58.6617 51.8333V30.4167H64.1291V51.8333H58.6617ZM68.4875 51.8333V30.4167H74.1612C76.3791 30.4167 77.9265 30.5278 78.8033 30.75C79.6802 30.9722 80.4281 31.3333 81.0728 31.8611C81.7949 32.4444 82.3623 33.2222 82.7233 34.1111C83.1102 35.0278 83.2907 36.0278 83.2907 37.1111C83.2907 38.7778 82.9038 40.1111 82.1559 41.1667C81.4081 42.1944 80.2991 42.8889 78.8549 43.2222L84.2707 51.8611H78.1586L73.5938 43.4722V51.8611H68.4875V51.8333ZM73.5681 40.5278H74.5738C75.7344 40.5278 76.5854 40.3056 77.127 39.8889C77.6686 39.4722 77.9265 38.7778 77.9265 37.8611C77.9265 36.7778 77.6686 36.0278 77.1786 35.5833C76.6628 35.1389 75.8375 34.9167 74.6512 34.9167H73.5681V40.5278ZM86.3338 51.8333V30.4167H98.5065V35.1111H91.6207V38.8333H98.1196V43.4167H91.6207V47.0278H98.5065V51.8333H86.3338ZM27.0181 30.25H2.23438V34.5H27.0181V30.25ZM27.0181 38.5H2.23438V42.75H27.0181V38.5ZM27.0181 47.4722H2.23438V51.7222H27.0181V47.4722Z" fill="#406CDC"/>
</g>
<defs>
<clipPath id="clip0_274_2980">
<rect width="98" height="40" fill="white" transform="translate(2 30)"/>
</clipPath>
</defs>
</svg>
