<svg id="eVmbntyJB5P1" xmlns="http://www.w3.org/2000/svg" xmlns:xlink="http://www.w3.org/1999/xlink" viewBox="0 0 389 356" shape-rendering="geometricPrecision" text-rendering="geometricPrecision">
    <style>
        <![CDATA[
#eVmbntyJB5P2_tr {animation: eVmbntyJB5P2_tr__tr 2000ms linear infinite normal forwards}@keyframes eVmbntyJB5P2_tr__tr { 0% {transform: translate(194.834118px,178px) rotate(360.216563deg);animation-timing-function: cubic-bezier(0.72,0.005,0.26,1)} 50% {transform: translate(194.834118px,178px) rotate(540.216562deg);animation-timing-function: cubic-bezier(0.7,-0.005,0.26,0.99)} 100% {transform: translate(194.834118px,178px) rotate(720.216564deg)}} #eVmbntyJB5P2_ts {animation: eVmbntyJB5P2_ts__ts 2000ms linear infinite normal forwards}@keyframes eVmbntyJB5P2_ts__ts { 0% {transform: scale(0.927938,0.927938);animation-timing-function: cubic-bezier(0.7,-0.005,0.26,0.99)} 50% {transform: scale(1.08202,1.082023);animation-timing-function: cubic-bezier(0.7,-0.005,0.26,0.99)} 100% {transform: scale(0.927938,0.927938)}} #eVmbntyJB5P3 {animation: eVmbntyJB5P3_c_o 2000ms linear infinite normal forwards}@keyframes eVmbntyJB5P3_c_o { 0% {opacity: 0;animation-timing-function: cubic-bezier(0.7,-0.005,0.26,0.99)} 50% {opacity: 1;animation-timing-function: cubic-bezier(0.7,-0.005,0.26,0.99)} 100% {opacity: 0}} #eVmbntyJB5P4 {animation: eVmbntyJB5P4_c_o 2000ms linear infinite normal forwards}@keyframes eVmbntyJB5P4_c_o { 0% {opacity: 0.6;animation-timing-function: cubic-bezier(0.7,-0.005,0.26,0.99)} 50% {opacity: 1;animation-timing-function: cubic-bezier(0.7,-0.005,0.26,0.99)} 100% {opacity: 0.6}}
]]>
    </style>
    <defs>
        <filter id="eVmbntyJB5P3-filter" x="-150%" width="400%" y="-150%" height="400%">
            <feGaussianBlur id="eVmbntyJB5P3-filter-drop-shadow-0-blur" in="SourceAlpha" stdDeviation="10,10"/>
            <feOffset id="eVmbntyJB5P3-filter-drop-shadow-0-offset" dx="0" dy="0" result="tmp"/>
            <feFlood id="eVmbntyJB5P3-filter-drop-shadow-0-flood" flood-color="#FFD033"/>
            <feComposite id="eVmbntyJB5P3-filter-drop-shadow-0-composite" operator="in" in2="tmp"/>
            <feMerge id="eVmbntyJB5P3-filter-drop-shadow-0-merge" result="result">
                <feMergeNode id="eVmbntyJB5P3-filter-drop-shadow-0-merge-node-1"/>
                <feMergeNode id="eVmbntyJB5P3-filter-drop-shadow-0-merge-node-2" in="SourceGraphic"/>
            </feMerge>
        </filter>
    </defs>
    <g id="eVmbntyJB5P2_tr" transform="translate(194.834118,178) rotate(360.216563)">
        <g id="eVmbntyJB5P2_ts" transform="scale(0.927938,0.927938)">
            <g transform="translate(-194.834118,-184)">
                <path id="eVmbntyJB5P3" d="M260.933,55.7809C254.47,44.7661,242.655,38,229.884,38h-71.571c-12.877,0-24.773,6.8778-31.198,18.0373L43.5948,201.098c-6.537,11.354-6.3899,25.363.384,36.577l38.0189,62.939C88.5162,311.405,100.205,318,112.812,318h162.31c12.372,0,23.877-6.353,30.467-16.823l39.753-63.156c7.162-11.379,7.387-25.8.582-37.396L260.933,55.7809ZM144.387,90.0528C150.81,78.8846,162.711,72,175.594,72h38.036c12.867,0,24.757,6.8682,31.185,18.0151L306.362,196.736c6.785,11.766,6.371,26.35-1.072,37.711l-22.454,34.279C276.184,278.881,264.862,285,252.722,285h-115.116c-11.989,0-23.191-5.968-29.879-15.919L84.501,234.522c-7.6531-11.387-8.1682-26.135-1.3283-38.028L144.387,90.0528Z" opacity="0" clip-rule="evenodd" filter="url(#eVmbntyJB5P3-filter)" fill="#FFD033" fill-rule="evenodd"/>
                <path id="eVmbntyJB5P4" d="M260.933,55.7809C254.47,44.7661,242.655,38,229.884,38h-71.571c-12.877,0-24.773,6.8778-31.198,18.0373L43.5948,201.098c-6.537,11.354-6.3899,25.363.384,36.577l38.0189,62.939C88.5162,311.405,100.205,318,112.812,318h162.31c12.372,0,23.877-6.353,30.467-16.823l39.753-63.156c7.162-11.379,7.387-25.8.582-37.396L260.933,55.7809ZM144.387,90.0528C150.81,78.8846,162.711,72,175.594,72h38.036c12.867,0,24.757,6.8682,31.185,18.0151L306.362,196.736c6.785,11.766,6.371,26.35-1.072,37.711l-22.454,34.279C276.184,278.881,264.862,285,252.722,285h-115.116c-11.989,0-23.191-5.968-29.879-15.919L84.501,234.522c-7.6531-11.387-8.1682-26.135-1.3283-38.028L144.387,90.0528Z" opacity="0.6" clip-rule="evenodd" fill="#FFD033" fill-rule="evenodd"/>
            </g>
        </g>
    </g>
</svg>