<svg width="41" height="40" viewBox="0 0 41 40" fill="none" xmlns="http://www.w3.org/2000/svg">
<circle cx="20.5" cy="20" r="20" fill="#02FF79"/>
<path fill-rule="evenodd" clip-rule="evenodd" d="M26.0556 18.4194L19.1004 11.4455C18.9598 11.3043 18.7928 11.1923 18.609 11.1158C18.4252 11.0394 18.2282 11 18.0291 11C17.8301 11 17.6331 11.0394 17.4493 11.1158C17.2654 11.1923 17.0985 11.3043 16.9579 11.4455C16.817 11.5865 16.7053 11.7539 16.629 11.9382C16.5528 12.1225 16.5135 12.3201 16.5135 12.5197C16.5135 12.7192 16.5528 12.9168 16.629 13.1011C16.7053 13.2854 16.817 13.4528 16.9579 13.5938L22.8409 19.4935L16.9579 25.3922C16.8142 25.5326 16.6997 25.7002 16.6211 25.8853C16.5425 26.0704 16.5014 26.2693 16.5 26.4704C16.4987 26.6716 16.5372 26.871 16.6134 27.0572C16.6895 27.2433 16.8018 27.4124 16.9436 27.5547C17.0855 27.697 17.2541 27.8096 17.4397 27.886C17.6253 27.9625 17.8241 28.0012 18.0248 28C18.2254 27.9987 18.4238 27.9576 18.6085 27.8788C18.7931 27.8001 18.9603 27.6854 19.1004 27.5414L26.0378 20.5855L26.0437 20.5786L26.0556 20.5676C26.1965 20.4266 26.3083 20.2592 26.3845 20.0749C26.4608 19.8906 26.5 19.693 26.5 19.4935C26.5 19.2939 26.4608 19.0964 26.3845 18.912C26.3083 18.7277 26.1965 18.5603 26.0556 18.4194Z" fill="black"/>
</svg>
